0
SECTION
2
HEADER
9
$INSUNITS
70
4
9
$ACADVER
1
AC1014
9
$HANDSEED
5
FFFF
0
ENDSEC
0
SECTION
2
TABLES
0
TABLE
2
VPORT
5
8
100
AcDbSymbolTable
0
ENDTAB
0
TABLE
2
LTYPE
5
5
100
AcDbSymbolTable
0
LTYPE
5
14
100
AcDbSymbolTableRecord
100
AcDbLinetypeTableRecord
2
BYBLOCK
70
0
0
LTYPE
5
15
100
AcDbSymbolTableRecord
100
AcDbLinetypeTableRecord
2
BYLAYER
70
0
0
LTYPE
5
16
100
AcDbSymbolTableRecord
100
AcDbLinetypeTableRecord
2
DASHED
70
0
3
Dashed __ __ __ __ __ __ __ __ __ __ __ __ __ _
72
65
73
2
40
0.75
49
0.5
74
0
49
-0.25
74
0
0
ENDTAB
0
TABLE
2
LAYER
5
2
100
AcDbSymbolTable
70
2
0
LAYER
5
50
100
AcDbSymbolTableRecord
100
AcDbLayerTableRecord
2
0
70
0
62
7
6
CONTINUOUS
0
ENDTAB
0
TABLE
2
STYLE
5
3
100
AcDbSymbolTable
70
1
0
STYLE
5
11
100
AcDbSymbolTableRecord
100
AcDbTextStyleTableRecord
2
STANDARD
70
0
0
ENDTAB
0
TABLE
2
VIEW
5
6
100
AcDbSymbolTable
70
0
0
ENDTAB
0
TABLE
2
UCS
5
7
100
AcDbSymbolTable
70
0
0
ENDTAB
0
TABLE
2
APPID
5
9
100
AcDbSymbolTable
70
2
0
APPID
5
12
100
AcDbSymbolTableRecord
100
AcDbRegAppTableRecord
2
ACAD
70
0
0
ENDTAB
0
TABLE
2
DIMSTYLE
5
A
100
AcDbSymbolTable
70
1
0
ENDTAB
0
TABLE
2
BLOCK_RECORD
5
1
100
AcDbSymbolTable
70
1
0
BLOCK_RECORD
5
1F
100
AcDbSymbolTableRecord
100
AcDbBlockTableRecord
2
*MODEL_SPACE
0
BLOCK_RECORD
5
1B
100
AcDbSymbolTableRecord
100
AcDbBlockTableRecord
2
*PAPER_SPACE
0
ENDTAB
0
ENDSEC
0
SECTION
2
BLOCKS
0
BLOCK
5
20
100
AcDbEntity
100
AcDbBlockBegin
2
*MODEL_SPACE
0
ENDBLK
5
21
100
AcDbEntity
100
AcDbBlockEnd
0
BLOCK
5
1C
100
AcDbEntity
100
AcDbBlockBegin
2
*PAPER_SPACE
0
ENDBLK
5
1D
100
AcDbEntity
100
AcDbBlockEnd
0
ENDSEC
0
SECTION
2
ENTITIES
0
LWPOLYLINE
5
100
100
AcDbEntity
8
0
100
AcDbPolyline
90
8
70
1
43
0.0
10
-28.649999999996353
20
-10.558992661563265
10
-28.649999999996368
20
-8.2649926615632818
42
-0.41421356237312623
10
-28.399999999996368
20
-8.0149926615632872
10
-27.375999999996402
20
-8.0149926615633049
42
-0.41421356237313667
10
-27.125999999996409
20
-8.2649926615632996
10
-27.125999999996392
20
-10.558992661563256
42
-0.4142135623730846
10
-27.375999999996395
20
-10.80899266156325
10
-28.399999999996346
20
-10.808992661563268
42
-0.41421356237309503
0
LWPOLYLINE
5
101
100
AcDbEntity
8
0
100
AcDbPolyline
90
8
70
1
43
0.0
10
28.649999999996368
20
-18.264992661563284
10
28.649999999996353
20
-20.558992661563266
42
-0.41421356237309503
10
28.399999999996346
20
-20.808992661563266
10
27.375999999996395
20
-20.808992661563252
42
-0.4142135623730846
10
27.125999999996392
20
-20.558992661563256
10
27.125999999996399
20
-18.264992661563298
42
-0.41421356237313667
10
27.375999999996402
20
-18.014992661563298
10
28.399999999996368
20
-18.014992661563287
42
-0.41421356237312623
0
LWPOLYLINE
5
102
100
AcDbEntity
8
0
100
AcDbPolyline
90
8
70
1
43
0.0
10
28.649999999996368
20
-8.2649926615632818
10
28.649999999996353
20
-10.558992661563265
42
-0.41421356237309503
10
28.399999999996346
20
-10.808992661563268
10
27.375999999996395
20
-10.80899266156325
42
-0.4142135623730846
10
27.125999999996392
20
-10.558992661563256
10
27.125999999996399
20
-8.2649926615632996
42
-0.41421356237313667
10
27.375999999996402
20
-8.014992661563296
10
28.399999999996368
20
-8.0149926615632872
42
-0.41421356237312623
0
LWPOLYLINE
5
103
100
AcDbEntity
8
0
100
AcDbPolyline
90
8
70
1
43
0.0
10
-28.649999999996353
20
-30.558992661563266
10
-28.649999999996368
20
-28.264992661563284
42
-0.41421356237312623
10
-28.399999999996368
20
-28.014992661563287
10
-27.375999999996402
20
-28.014992661563305
42
-0.41421356237313667
10
-27.125999999996409
20
-28.264992661563298
10
-27.125999999996392
20
-30.558992661563256
42
-0.4142135623730846
10
-27.375999999996395
20
-30.808992661563252
10
-28.399999999996346
20
-30.808992661563266
42
-0.41421356237309503
0
LWPOLYLINE
5
104
100
AcDbEntity
8
0
100
AcDbPolyline
90
8
70
1
43
0.0
10
26.839317577036354
20
-36.301743622953538
10
25.52353323204705
20
-38.180878412552453
42
-0.41421356237309503
10
25.175351111887039
20
-38.24227231453694
10
24.336539418535157
20
-37.654930043713492
42
-0.41421356237309503
10
24.275145516550658
20
-37.306747923553473
10
25.590929861539948
20
-35.427613133954573
42
-0.41421356237313256
10
25.939111981699959
20
-35.366219231970078
10
26.777923675051859
20
-35.953561502793519
42
-0.41421356237313084
0
CIRCLE
5
105
100
AcDbEntity
8
0
100
AcDbCircle
10
-23.997037088683427
20
-44.112013481827653
30
0
40
1.6999999999999993
210
0
220
-0
230
1
0
LWPOLYLINE
5
106
100
AcDbEntity
8
0
100
AcDbPolyline
90
8
70
1
43
0.0
10
-28.649999999996353
20
-20.558992661563266
10
-28.649999999996368
20
-18.264992661563284
42
-0.41421356237312623
10
-28.399999999996368
20
-18.014992661563287
10
-27.375999999996402
20
-18.014992661563305
42
-0.41421356237313667
10
-27.125999999996409
20
-18.264992661563298
10
-27.125999999996392
20
-20.558992661563256
42
-0.4142135623730846
10
-27.375999999996395
20
-20.808992661563252
10
-28.399999999996346
20
-20.808992661563266
42
-0.41421356237309503
0
CIRCLE
5
107
100
AcDbEntity
8
0
100
AcDbCircle
10
0.0029629113161236311
20
-44.112013481827773
30
0
40
15.250000000000004
210
0
220
-0
230
1
0
CIRCLE
5
108
100
AcDbEntity
8
0
100
AcDbCircle
10
24.002962911315681
20
-44.112013481827866
30
0
40
1.6999999999999993
210
0
220
-0
230
1
0
LWPOLYLINE
5
109
100
AcDbEntity
8
0
100
AcDbPolyline
90
8
70
1
43
0.0
10
28.649999999996368
20
-28.264992661563284
10
28.649999999996353
20
-30.558992661563266
42
-0.41421356237309503
10
28.399999999996346
20
-30.808992661563266
10
27.375999999996395
20
-30.808992661563252
42
-0.4142135623730846
10
27.125999999996392
20
-30.558992661563256
10
27.125999999996399
20
-28.264992661563298
42
-0.41421356237313667
10
27.375999999996402
20
-28.014992661563298
10
28.399999999996368
20
-28.014992661563287
42
-0.41421356237312623
0
LWPOLYLINE
5
110
100
AcDbEntity
8
0
100
AcDbPolyline
90
8
70
1
43
0.0
10
-25.52353323204705
20
-38.180878412552453
10
-26.839317577036354
20
-36.301743622953538
42
-0.41421356237313256
10
-26.777923675051859
20
-35.953561502793519
10
-25.939111981699952
20
-35.366219231970092
42
-0.41421356237313256
10
-25.590929861539955
20
-35.42761313395458
10
-24.275145516550658
20
-37.306747923553473
42
-0.41421356237309503
10
-24.336539418535157
20
-37.654930043713492
10
-25.175351111887039
20
-38.24227231453694
42
-0.41421356237309759
0
LWPOLYLINE
5
111
100
AcDbEntity
8
0
100
AcDbPolyline
90
93
70
1
43
0.0
10
-4.9999999999999982
20
30
42
0.4142135623730952
10
-34.999999999999993
20
-4.8243679490299049e-15
10
-35.000000000000007
20
-29.406838789119902
42
0.21705503523126812
10
-28.124999999999893
20
-44.497709373682056
10
-12.301724588683678
20
-58.259704654854417
42
0.374028907842892
10
12.307650411315885
20
-58.259704654854431
10
28.124999999999929
20
-44.502863246125344
42
0.21705503523126671
10
34.999999999999993
20
-29.411992661563207
10
34.999999999999993
20
0
42
0.41421356237309515
10
5.0000000000000009
20
30
10
1.0000000149011612
20
30.000000447034836
10
1.0000000149011614
20
23.705751750677273
42
0.12858725338428759
10
1.7503154312157236
20
24.424954558519456
42
-0.55810292834512742
10
2.1758670087310414
20
24.425769221186762
42
0.26603275864518178
10
3.7629923769371896
20
23.14195684083937
42
0.26603275858298076
10
5.6751048293772506
20
23.856776489330525
42
-0.50515818548672264
10
6.0658590291398014
20
23.760428311058721
42
0.56562910120662346
10
9.3948393301490469
20
22.613690615535909
42
-0.55810292834515529
10
9.7987484869429125
20
22.479704788452889
42
0.56562910120662691
10
12.900669704823837
20
20.813811050875145
42
-0.5581029283451302
10
13.277855505979907
20
20.616768719871633
42
0.56562910120662691
10
16.072379510553624
20
18.474864712988506
42
-0.55810292834498842
10
16.413073041948547
20
18.219869170936008
42
0.56562910120664367
10
18.827823129392481
20
15.6574290834353
42
-0.55810292834518316
10
19.123200607521188
20
15.351084580929735
42
0.56562910120662346
10
21.095636018980422
20
12.434474265090094
42
-0.55810292834515063
10
21.33804732231404
20
12.08471496383115
42
0.56562910120662713
10
22.817083016704395
20
8.8894730948077942
42
-0.55810292834517539
10
23.000249819819373
20
8.5053575769779446
42
0.56562910120662224
10
23.947579549557851
20
5.114239240795289
42
-0.5581029283451866
10
24.066757928466597
20
4.705715896539731
42
0.56562910120661891
10
24.457846351162384
20
1.2065492768324186
42
-0.5581029283450345
10
24.509949648452796
20
0.78419864618003043
42
0.56562910120663856
10
24.334667779387253
20
-2.7323896796292098
42
-0.55810292834508257
10
24.318346547027968
20
-3.157628937195236
42
0.56562910120663046
10
23.581234094538679
20
-6.6005611786467089
42
-0.55810292834508468
10
23.496911043874729
20
-7.0176755897232681
42
0.56562910120663512
10
22.217058833293791
20
-10.297781610252489
42
-0.55810292834516229
10
22.066917887044411
20
-10.695968130692838
42
0.56562910120662313
10
20.277473418350496
20
-13.728294907328461
42
-0.55810292834522424
10
20.065403148158186
20
-14.097240715410928
42
0.56562910120661947
10
17.812712093138529
20
-16.803252577446081
42
-0.55810292834501307
10
17.544205007606038
20
-17.133402170539654
42
0.56562910120663945
10
14.886610881301332
20
-19.443014832150197
42
-0.55810292834517683
10
14.568621172903434
20
-19.725817509213321
42
0.5656291012066228
10
11.574954267215247
20
-21.579213215647314
42
-0.55810292834501318
10
11.215717702367357
20
-21.807344535893542
42
0.56562910120664567
10
7.9635124176519518
20
-23.156521311898178
42
-0.55810292834510744
10
7.5723330346851734
20
-23.324072793964916
42
0.56562910120663135
10
4.1458197795120277
20
-24.134087669731766
42
-0.55810292834513231
10
3.7328289189681776
20
-24.236719818244254
42
0.5656291012066309
10
0.22075258678164483
20
-24.48659383397213
42
-0.55810292834509101
10
-0.20335350498528582
20
-24.521648530194085
42
0.56562910120663279
10
-3.7100319819903742
20
-24.204910080128382
42
-0.55810292834515807
10
-4.1342691799763145
20
-24.171479425841028
42
0.56562910120662557
10
-7.5447286712189641
20
-23.296331869463458
42
-0.55810292834512143
10
-7.9581094548376106
20
-23.195281701052544
42
0.56562910120662913
10
-11.184020850926554
20
-21.784390900379375
42
-0.55810292834512809
10
-11.57583887502112
20
-21.618338364127524
42
0.56562910120662824
10
-14.533652765290945
20
-19.708245649789401
42
-0.55810292834510189
10
-14.893760148849912
20
-19.481491419162179
42
0.56562910120663368
10
-17.506870707210755
20
-17.121667189134875
42
-0.55810292834504238
10
-17.825940858155665
20
-16.840084079597034
42
0.56562910120663812
10
-20.026669893749769
20
-14.091646541879639
42
-0.55810292834515873
10
-20.296439062770958
20
-13.76252740805927
42
0.56562910120662357
10
-22.027788849566239
20
-10.696659651190984
42
-0.55810292834516173
10
-22.241270156889293
20
-10.328528505775816
42
0.5656291012066248
10
-23.458399644843915
20
-7.024634894233226
42
-0.55810292834508757
10
-23.610064036745765
20
-6.6270261405191384
42
0.56562910120663035
10
-24.281450211450377
20
-3.1706757833857164
42
-0.55810292834522612
10
-24.367369659846311
20
-2.7538872792395348
42
0.56562910120661725
10
-24.475623972039081
20
0.76540216477215373
42
-0.55810292834511543
10
-24.493573208347179
20
1.1905758160218469
42
0.56562910120662546
10
-24.035891928205562
20
4.6816565989096741
42
-0.55810292834514919
10
-23.985406076633669
20
5.1042036230290089
42
0.56562910120662557
10
-22.973642908904509
20
8.4766585862964625
42
-0.55810292834516484
10
-22.856029526489351
20
8.8856352373144851
42
0.56562910120662369
10
-21.316388605762072
20
12.052119568882013
42
-0.55810292834511388
10
-21.13469381732877
20
12.436933566362892
42
0.56562910120662813
10
-19.107051034714026
20
15.315436985320581
42
-0.55810292834513142
10
-18.865980639843084
20
15.666121848863062
42
0.56562910120662802
10
-16.402850878338896
20
18.182092628668158
42
-0.55810292834517006
10
-16.108648473629
20
18.489565804512761
42
0.56562910120662369
10
-13.27382550023583
20
20.577841623546938
42
-0.55810292834510933
10
-12.934110773431623
20
20.834139717947536
42
0.56562910120663179
10
-9.8010150140963024
20
22.440635329418615
42
-0.55810292834511865
10
-9.4245863981780325
20
22.639120356357409
42
0.5656291012066289
10
-6.0743633873279368
20
23.7222283677816
42
-0.55810292834512931
10
-5.6709701857190264
20
23.857759669320252
42
0.56562910120662613
10
-2.1903889395440226
20
24.38942815213213
42
-0.55810292834508501
10
-1.770478824273491
20
24.458495538752146
42
0.13343213906625145
10
-1.0000000149011616
20
23.705751750677273
10
-1.0000000149011612
20
30.000000447034836
0
ENDSEC
0
SECTION
2
OBJECTS
0
DICTIONARY
5
C
100
AcDbDictionary
3
ACAD_GROUP
350
D
3
ACAD_MLINESTYLE
350
17
0
DICTIONARY
5
D
100
AcDbDictionary
0
DICTIONARY
5
1A
330
C
100
AcDbDictionary
0
DICTIONARY
5
17
100
AcDbDictionary
0
ENDSEC
0
EOF
